<?xml version="1.0" encoding="UTF-8"?>
<svg id="Layer_1" data-name="Layer 1" xmlns="http://www.w3.org/2000/svg" xmlns:xlink="http://www.w3.org/1999/xlink" viewBox="0 0 180 180">
  <defs>
    <style>
      .cls-1 {
        fill: url(#linear-gradient);
      }
    </style>
    <linearGradient id="linear-gradient" x1="-.28" y1="179.81" x2="179.28" y2="1.37" gradientUnits="userSpaceOnUse">
      <stop offset="0" stop-color="#6979bb"/>
      <stop offset=".27" stop-color="#6e7abb"/>
      <stop offset=".6" stop-color="#7c7fbd"/>
      <stop offset=".95" stop-color="#9488c0"/>
      <stop offset="1" stop-color="#998ac1"/>
    </linearGradient>
  </defs>
  <rect class="cls-1" y=".09" width="180" height="180"/>
  <path d="M68.96,22.67c.48-2.43,2.31-4.3,4.76-4.76,11.69-.16,23.43-.19,35.12.02,2.42.41,4.26,2.34,4.75,4.71,3.89-.09,7.63.93,10.82,3.15,4.56,3.18,7.34,8.32,7.56,13.91v49.97c-.26,8.96-7.5,16.47-16.45,17.02h-51c-8.5-.58-15.54-7.5-16.27-15.98v-51.95c.62-7.66,6.43-14.26,13.97-15.75,2.25-.44,4.46-.3,6.74-.34ZM64.54,35.74c-2.74.28-4.92,2.44-5.23,5.18v18.64c.4,2.84,2.62,4.91,5.48,5.12h49.6c2.9-.21,5.19-2.39,5.48-5.3v-18.47c-.34-2.85-2.63-5-5.48-5.21l-49.85.03ZM113.29,81.59c-8.3.48-7.42,13.14.81,12.53,8.08-.59,7.34-13-.81-12.53ZM65.39,82.05c-8.33.2-7.89,13.1.63,12.54,7.87-.51,7.46-12.74-.63-12.54Z"/>
  <path d="M69.34,108.56l-3.28,7.31h49.68l-3-7.31h3.89l25.36,39.66h-12.47l-4.17-9.66H55.7s-4.55,9.66-4.55,9.66h-13.5l27.42-39.66h4.27ZM121.09,128.34l-3.42-7.69h-53.72s-3.61,7.69-3.61,7.69h60.74Z"/>
</svg>